<?xml version="1.0" standalone="no"?><!DOCTYPE svg PUBLIC "-//W3C//DTD SVG 1.1//EN"
        "http://www.w3.org/Graphics/SVG/1.1/DTD/svg11.dtd">
<svg t="1616290881639" class="icon" viewBox="0 0 1024 1024" version="1.1" xmlns="http://www.w3.org/2000/svg" p-id="2529"
     xmlns:xlink="http://www.w3.org/1999/xlink" width="32" height="32">
    <defs>
        <style type="text/css"></style>
    </defs>
    <path d="M257.5 498.6V190l53.7-53.5 53.7 53.5v246.4l-107.4 62.2z m0 336v-308L364.9 580v254.6L311.2 888l-53.7-53.4z m70.6-715.5l54.8-54.9H643l55.1 54.9-55.1 52.4H382.8l-54.7-52.4z m0 786.2l54.8-52.4H643l55.1 52.4-55.1 54.9H382.8l-54.7-54.9z m332.2-468.6V190.3l53.7-53.5 53.7 53.5v308.6l-107.4-62.2z m0 397.8V579.4l107.3-53.5v308.6L714 888l-53.7-53.5z"
          p-id="2530"></path>
</svg>
