<?xml version="1.0" standalone="no"?><!DOCTYPE svg PUBLIC "-//W3C//DTD SVG 1.1//EN" "http://www.w3.org/Graphics/SVG/1.1/DTD/svg11.dtd"><svg t="1616290845950" class="icon" viewBox="0 0 1024 1024" version="1.1" xmlns="http://www.w3.org/2000/svg" p-id="1877" xmlns:xlink="http://www.w3.org/1999/xlink" width="32" height="32"><defs><style type="text/css"></style></defs><path d="M257.5 498.6V190l53.7-53.5 53.7 53.5v246.4l-107.4 62.2z m0 335.8V525.8l107.3 53.5v255.1l-53.7 53.5-53.6-53.5zM282 512.2l100.8-59h260.1l101.2 58-101.2 49.4H382.8L282 512.2z m46.1-393.1l54.8-54.9h362.5L642.9 171.6H382.8l-54.7-52.5z m0 786.2l54.8-52.4H643l55.1 52.4-55.1 54.9H382.8l-54.7-54.9z m332.2-70.8V579.4l107.3-53.5v308.6L714 888l-53.7-53.5z" p-id="1878"></path></svg>