<?xml version="1.0" standalone="no"?><!DOCTYPE svg PUBLIC "-//W3C//DTD SVG 1.1//EN"
        "http://www.w3.org/Graphics/SVG/1.1/DTD/svg11.dtd">
<svg t="1616290873424" class="icon" viewBox="0 0 1024 1024" version="1.1" xmlns="http://www.w3.org/2000/svg" p-id="2366"
     xmlns:xlink="http://www.w3.org/1999/xlink" width="32" height="32">
    <defs>
        <style type="text/css"></style>
    </defs>
    <path d="M257.5 498.6V190l53.7-53.5 53.7 53.5v255l-107.4 53.6z m22.4 461.6l102.9-107.3h260.1l54.8 52.4-54.8 54.9h-363z m2.1-448l100.8-59h260.1l101.2 58-101.2 49.4H382.8L282 512.2z m46.1-393.1l54.8-54.9H643l55.1 54.9-55.1 52.4H382.8l-54.7-52.4zM660.3 445V190l53.7-53.5 53.7 53.5v308.6L660.3 445z m0 389.4V588.1l107.3-62.2v308.6L714 887.9l-53.7-53.5z"
          p-id="2367"></path>
</svg>
