<?xml version="1.0" standalone="no"?><!DOCTYPE svg PUBLIC "-//W3C//DTD SVG 1.1//EN"
        "http://www.w3.org/Graphics/SVG/1.1/DTD/svg11.dtd">
<svg t="1616292380934" class="icon" viewBox="0 0 1024 1024" version="1.1" xmlns="http://www.w3.org/2000/svg" p-id="5642"
     width="128" height="128" xmlns:xlink="http://www.w3.org/1999/xlink">
    <defs>
        <style type="text/css"></style>
    </defs>
    <path d="M438.955312 297.550821l2.568369 1.467915-31.093373 54.420878-2.56837-1.466951zM474.732125 301.697055l2.567404 1.465986-31.08855 54.423771-2.567405-1.466951zM659.265059 710.520082h92.878902V583.173145c0-39.676143-34.309862-77.4195-91.775554-100.967867l5.177245-12.637379c29.978452 12.283421 54.963871 28.76612 72.246112 47.667697 18.322898 20.039645 28.010944 42.839587 28.010945 65.936584v141.00472h-106.824096M405.268493 724.177865H297.540694v-141.00472c0-23.260956 9.81632-46.206533 28.391908-66.352269 17.521428-19.002845 42.817404-35.525088 73.153673-47.776681l5.113591 12.66342c-58.234371 23.520397-93.001389 61.453753-93.001389 101.46553v127.346937h94.922603M532.728272 654.83672c-27.94729 0-50.683577-22.735323-50.683577-50.682613 0-27.946325 22.736288-50.682613 50.683577-50.682613s50.685506 22.736288 50.685507 50.682613c0 27.94729-22.738217 50.682613-50.685507 50.682613z m0-93.972605c-23.869534 0-43.290957 19.41853-43.290956 43.289992 0 23.870498 19.421423 43.289992 43.290956 43.289992 23.871462 0 43.290957-19.419494 43.290957-43.289992 0-23.871462-19.419494-43.289992-43.290957-43.289992z"
          fill="#2c2c2c" p-id="5643"></path>
    <path d="M528.025543 534.227533c-55.506865 0-107.690185-21.61558-146.940034-60.864466s-60.864465-91.43317-60.864466-146.940034 21.61558-107.690185 60.864466-146.940035 91.43317-60.864465 146.940034-60.864465 107.691149 21.61558 146.940035 60.864465 60.864465 91.43317 60.864465 146.940035-21.61558 107.690185-60.864465 146.940034-91.43317 60.864465-146.940035 60.864466z m0-396.319709c-103.947098 0-188.515209 84.568111-188.515208 188.515209s84.568111 188.515209 188.515208 188.515208c103.948062 0 188.516173-84.568111 188.516173-188.515208s-84.567147-188.515209-188.516173-188.515209z"
          fill="#2c2c2c" p-id="5644"></path>
    <path d="M352.544109 499.553103c-45.803387-46.422573-71.028957-107.908154-71.028958-173.129106 0-65.84496 25.641255-127.748154 72.199818-174.307681 46.559527-46.559527 108.463685-72.200782 174.308645-72.200782s127.748154 25.641255 174.307681 72.200782 72.201746 108.463685 72.201747 174.307681c0 46.511304-13.021236 91.812204-37.656555 131.005151a248.652468 248.652468 0 0 1-5.073083 7.744651 248.253179 248.253179 0 0 1-28.023483 34.09768l-13.753264-13.526616a228.880944 228.880944 0 0 0 25.841863-31.44058c1.591367-2.334004 3.164408-4.736485 4.675724-7.138967 22.700603-36.114376 34.699506-77.866047 34.699507-120.740354 0-125.289734-101.931367-227.220136-227.221101-227.220137s-227.218207 101.929438-227.218207 227.219172c0 60.11797 23.250347 116.791837 65.469783 159.581272l-13.730117 13.547834z"
          fill="#2c2c2c" p-id="5645"></path>
    <path d="M340.611753 247.724653h371.700786v19.289291H340.611753zM340.68023 398.411632h371.700786v19.289292H340.68023zM400.189623 490.207441h14.466968v358.788534h-14.466968zM650.915689 482.602638h14.466969v367.320188h-14.466969zM590.805435 854.493423h-14.466968V724.557864h-87.217495v129.935559h-14.466969V715.40413l10.358349-5.313235h97.488079l8.305004 6.05298z"
          fill="#2c2c2c" p-id="5646"></path>
    <path d="M489.120972 934.632713h-88.930385v-87.373738h88.930385v87.373738z m-74.463416-14.466968h59.996447v-58.439802h-59.996447v58.439802zM665.268851 934.632713h-88.930384v-87.373738h88.930384v87.373738z m-74.463416-14.466968h59.996448v-58.439802h-59.996448v58.439802zM303.082508 648.603386h103.036643v14.466968H303.082508zM658.406686 648.603386h103.035678v14.466968H658.406686zM326.932752 684.872076h9.644646v7.102317h-9.644646zM350.19178 684.872076h9.644645v7.102317h-9.644645zM373.449843 684.872076h9.644645v7.102317h-9.644645zM681.845104 684.872076h9.644645v7.102317h-9.644645zM705.103167 684.872076h9.644645v7.102317h-9.644645zM728.360265 684.872076h9.644646v7.102317h-9.644646zM685.329714 490.927896c-11.980579 0-21.727458-9.746879-21.727458-21.727458s9.746879-21.726493 21.727458-21.726493 21.727458 9.745914 21.727458 21.726493-9.746879 21.727458-21.727458 21.727458z m0-33.81027c-6.662521 0-12.082812 5.420291-12.082812 12.081848 0 6.662521 5.420291 12.082812 12.082812 12.082812s12.082812-5.420291 12.082812-12.082812c0-6.661557-5.420291-12.081848-12.082812-12.081848zM730.891985 145.97557c-11.316063 0-20.522842-9.206779-20.522842-20.522841s9.206779-20.522842 20.522842-20.522842 20.522842 9.206779 20.522841 20.522842-9.206779 20.522842-20.522841 20.522841z m0-31.401037c-5.99897 0-10.878196 4.880191-10.878196 10.878196s4.880191 10.878196 10.878196 10.878195 10.878196-4.880191 10.878196-10.878195-4.879226-10.878196-10.878196-10.878196zM369.344117 493.996822c-11.980579 0-21.726493-9.746879-21.726493-21.727458s9.745914-21.726493 21.726493-21.726493 21.727458 9.745914 21.727458 21.726493-9.746879 21.727458-21.727458 21.727458z m0-33.809305c-6.661557 0-12.081848 5.420291-12.081848 12.081847 0 6.662521 5.420291 12.082812 12.081848 12.082812 6.662521 0 12.082812-5.420291 12.082812-12.082812 0-6.661557-5.420291-12.081848-12.082812-12.081847z"
          fill="#2c2c2c" p-id="5647"></path>
    <path d="M726.069662 136.397472h9.644646v380.705028h-9.644646z" fill="#2c2c2c" p-id="5648"></path>
    <path d="M516.735521 565.804103l1.443803-0.86609-0.71081-0.327918c-0.217969-0.087766-0.455227-0.237258-0.737815-0.311522l-0.884414-0.24208c-0.595075-0.203502-1.222941-0.226649-1.683955-0.29802l-0.772537-0.097411-1.213296 1.081165s0.294162 0.026041 0.733958 0.067513c0.438831 0.052081 1.03487 0.054974 1.601975 0.228578l0.842942 0.201573c0.269086 0.061726 0.495735 0.196751 0.703095 0.272943l0.677054 0.291269zM520.550943 571.409571l1.673346-0.368426s-0.245938-1.268271-0.78411-2.419841c-0.140812-0.283553-0.251725-0.58543-0.409897-0.837156l-0.453299-0.675125c-0.244974-0.412791-0.492841-0.617257-0.492841-0.617257l-1.539285 0.725277s0.235329 0.185177 0.464871 0.567105l0.428223 0.623044c0.149492 0.232436 0.251725 0.512131 0.383857 0.77543 0.284517 0.520811 0.409897 1.104312 0.555531 1.519996 0.149492 0.420507 0.159137 0.707917 0.173604 0.706953zM520.920333 578.454984l1.711924 0.080051 0.029899-0.777359c0.026041-0.463907 0.027969-1.090809 0.027969-1.716747 0.014467-0.624009-0.027969-1.257662-0.048223-1.729285-0.01736-0.472588-0.049188-0.788932-0.049188-0.788932l-1.708066 0.14467s0.030863 0.293197 0.045329 0.739744c0.019289 0.446547 0.060761 1.036799 0.04533 1.63959 0.016396 1.196901-0.054974 2.408268-0.054974 2.408268zM520.382162 585.718367l1.709995 0.129238 0.392537-4.892729-1.709031-0.126344zM520.214345 593.144744l1.709995-0.117665-0.030862-0.743602a22.8771 22.8771 0 0 1-0.02797-1.646341c0.000964-0.599897 0.013503-1.202687 0.039543-1.657914l0.032792-0.755176-1.711925-0.088731-0.033756 0.776394c-0.026041 0.464872-0.039543 1.089845-0.040507 1.716747-0.016396 0.623044 0.009645 1.254768 0.029898 1.728321 0.018325 0.472588 0.032792 0.787968 0.032792 0.787967zM522.608146 600.490106l1.33289-1.078271c-0.012538 0.011574-0.172639-0.208324-0.38675-0.560354-0.106091-0.176497-0.251725-0.367461-0.373248-0.596039a264.417606 264.417606 0 0 0-0.330812-0.752283c-0.245938-0.502486-0.342385-1.085023-0.485125-1.485275-0.102233-0.419542-0.142741-0.71081-0.142741-0.71081l-1.682991 0.325989s0.04533 0.319238 0.16203 0.793754c0.160101 0.46873 0.271979 1.113957 0.562283 1.723498l0.398324 0.899846c0.146599 0.27873 0.325025 0.524669 0.459085 0.741673l0.337563 0.517917c0.081015 0.123451 0.15335 0.176497 0.149492 0.180355zM529.701783 603.722991l0.113806-1.709995-0.713703-0.087766-0.732993-0.086802c-0.267157-0.033756-0.529491-0.136954-0.803399-0.202538-0.269086-0.077157-0.545887-0.139847-0.793755-0.221827a110.537284 110.537284 0 0 1-0.636546-0.301877c-0.379999-0.166852-0.620151-0.294162-0.610506-0.308629l-0.897917 1.461164c-0.007716 0.015431 0.290304 0.180355 0.755176 0.388679l0.790861 0.367461c0.297055 0.100304 0.621115 0.178426 0.941317 0.269086 0.322131 0.079086 0.643298 0.194822 0.94614 0.235329l0.830404 0.100305 0.811115 0.09741z"
          fill="#2c2c2c" p-id="5649"></path>
    <path d="M537.235215 603.100912l-0.411826-1.664666c-0.000964 0-0.276801 0.074264-0.708881 0.152385-0.422435 0.097411-1.016546 0.165888-1.600047 0.244974a39.568123 39.568123 0 0 1-2.400552 0.180355l0.098375 1.71096s1.204616-0.046294 2.49507-0.187106c0.631724-0.085837 1.260555-0.159137 1.737-0.266192 0.473552-0.085837 0.790861-0.17071 0.790861-0.17071zM541.918655 597.158846l-1.725427 0.028934s0.044365 0.326953 0.065584 0.767713c0.003858 0.402182-0.027005 0.921064-0.189035 1.350251-0.148528 0.436902-0.443654 0.782181-0.729135 1.011723-0.260405 0.245938-0.52274 0.348172-0.508273 0.358781l0.874769 1.473702c-0.006751-0.019289 0.321167-0.145634 0.746496-0.529491 0.431116-0.344314 0.968322-0.975074 1.222941-1.717712 0.271979-0.734922 0.300913-1.466951 0.297055-1.983903a7.846884 7.846884 0 0 0-0.054975-0.759998zM541.051602 590.207949l-1.72157-0.495734s-0.044365 0.314415-0.039543 0.788932c-0.020254 0.474517 0.023147 1.106241 0.085838 1.736036 0.140812 1.256697 0.402182 2.499892 0.402181 2.499892l1.74761 0.147563s-0.254619-1.152535-0.402181-2.323395c-0.065584-0.58543-0.113807-1.174718-0.100305-1.617407a5.100089 5.100089 0 0 1 0.02797-0.735887zM544.447481 584.317l-1.493955-0.958678c-0.862231 0.787003-1.6936 1.606798-2.390908 2.543293-0.293197 0.43208-0.510202 0.90949-0.699237 1.396545l1.671417 0.660658c0.174568-0.454263 0.377106-0.897917 0.654872-1.298169 0.654871-0.868983 1.451519-1.618372 2.257811-2.343649zM549.883204 579.865996l-1.094668-1.320352-1.993548 1.577864-1.970401 1.604869 1.374362 1.085023 1.832483-1.484311 1.851772-1.463093zM555.540753 575.122759l-1.20751-1.21619c-0.715633 0.713704-1.437052 1.36086-2.230806 1.894209l-0.060762 0.040507-0.066548 0.06269c-0.394466 0.377106-0.841978 0.762891-1.305885 1.138069l1.088881 1.325174c0.475481-0.38675 0.947104-0.787968 1.429336-1.250911l-0.13406 0.109949c0.922993-0.617257 1.743752-1.36086 2.487354-2.103497zM561.116323 571.98632l-0.014467-1.713853c0-0.000964-0.336598-0.000964-0.844871 0.039543-0.255583 0.040508-0.553603 0.076193-0.870912 0.139847-0.312487 0.097411-0.659694 0.159137-0.979896 0.303807a7.040591 7.040591 0 0 0-1.657914 0.922992 7.233484 7.233484 0 0 0-0.651979 0.520811l1.122637 1.295276s0.83812-0.778323 1.809336-1.142891c0.235329-0.111878 0.500557-0.148528 0.732028-0.227613l0.673197-0.107056c0.40604-0.029898 0.682841-0.031827 0.682841-0.030863z"
          fill="#2c2c2c" p-id="5650"></path>
    <path d="M574.048828 592.925811l1.485275 0.790861s0.182284-1.128424 0.014467-2.240452c-0.112842-0.5401-0.27873-1.092738-0.568069-1.385935-0.253654-0.314415-0.511166-0.4234-0.4967-0.439796l-1.549894-0.535278c-0.013503 0.015431 0.24401 0.121523 0.499593 0.419542 0.291268 0.27873 0.463907 0.795683 0.583501 1.300098 0.186142 1.040657 0.031827 2.090959 0.031827 2.09096zM571.55858 598.515847l1.229693 1.194007 0.504415-0.495734c0.3067-0.293197 0.634618-0.761927 0.895987-1.262485 0.542994-0.994363 0.862231-2.083243 0.862232-2.083243l-1.421621-0.935531s-0.282588 1.01751-0.777359 1.947254c-0.237258 0.467765-0.539136 0.904668-0.824617 1.176647l-0.46873 0.459085zM566.261741 602.377563l1.333854 1.127459 0.139848-0.114771c0.086802-0.076193 0.217969-0.176497 0.381928-0.285481 0.325989-0.221827 0.74746-0.537207 1.191114-0.82076l1.748574-1.169895-1.085023-1.330961c0 0.001929-3.772985 2.515324-3.710295 2.594409zM562.873577 607.989783l1.584615 0.730099c0.100304-0.634618 0.229543-1.271164 0.46873-1.869132 0.149492-0.348172 0.284517-0.704059 0.516953-1.00883 0.221827-0.304771 0.384821-0.657765 0.654871-0.925886l-1.431265-1.005936c-0.286446 0.291268-0.464872 0.666445-0.703095 0.997256-0.247867 0.327918-0.402182 0.705024-0.563247 1.0802-0.259441 0.642333-0.408933 1.323245-0.527562 2.002229zM560.798049 613.709058l1.248017 1.175682 0.528527-0.59411 0.407004-0.569034c0.178426-0.256548 0.302842-0.526598 0.46005-0.800506 0.165888-0.271015 0.268121-0.551674 0.354923-0.816901 0.083908-0.258477 0.200609-0.523704 0.225684-0.705024l0.140812-0.642333-1.628981-0.580608-0.150456 0.692485c-0.037614 0.225685-0.121523 0.397359-0.190964 0.624973a2.532684 2.532684 0 0 1-0.276801 0.646192c-0.114771 0.195786-0.217969 0.424364-0.329847 0.584465l-0.407004 0.569999-0.380964 0.41472zM555.524357 616.585091l0.533349 1.628981s1.066698-0.34142 2.116035-0.793755a14.451537 14.451537 0 0 0 2.048523-1.069591l-0.919135-1.446697c0-0.000964-0.843906 0.546851-1.811264 0.944211-0.953855 0.410862-1.967508 0.736851-1.967508 0.736851zM549.290058 618.386711l0.508273 1.636696 0.653907-0.200609a48.965866 48.965866 0 0 1 1.414869-0.41279l2.10832-0.575786-0.461014-1.651163-2.104462 0.574821a50.046066 50.046066 0 0 0-1.468879 0.428222l-0.651014 0.200609z"
          fill="#2c2c2c" p-id="5651"></path>
    <path d="M543.0085 620.058128l0.500557 1.63959s1.020404-0.310558 2.069741-0.577715c1.056089-0.264263 2.110248-0.530456 2.110249-0.530455l-0.416649-1.663702-2.124715 0.535278c-1.067662 0.271015-2.139182 0.597004-2.139183 0.597004zM536.897653 623.237003l1.249946 1.173753 0.421471-0.40411c0.284517-0.222791 0.675125-0.513095 1.11685-0.760963 0.880556-0.497664 1.863346-0.875734 1.863345-0.875734l-0.624973-1.595224s-1.064769 0.405075-2.090959 0.984718a10.551242 10.551242 0 0 0-1.365682 0.934566c-0.348172 0.314415-0.570963 0.542994-0.569998 0.542994zM539.14582 628.978461l0.194822-1.726392c0.021218-0.013503-0.326953 0.024112-0.65005-0.040507-0.34142-0.050152-0.797612-0.164923-1.087916-0.353959-0.299948-0.192893-0.365532-0.356852-0.380963-0.564212-0.001929-0.217005 0.059797-0.41472 0.059797-0.41472l-1.657915-0.437866-0.055939 0.244974c-0.046294 0.14467-0.052081 0.407004-0.058832 0.703094 0.016396 0.157208 0.048223 0.333705 0.085837 0.513095 0.054974 0.178426 0.138883 0.36939 0.233401 0.549745 0.220862 0.346243 0.527562 0.662587 0.850657 0.849693 0.64812 0.404111 1.289489 0.528527 1.753397 0.60472 0.489948 0.078122 0.69345 0.06269 0.713704 0.072335zM545.193977 629.103841l0.646191-1.650199-0.163959-0.103198c-0.10802-0.057868-0.242081-0.180355-0.44076-0.254618-0.197715-0.073299-0.421471-0.185177-0.674161-0.259441-0.26137-0.031827-0.534313-0.138883-0.816901-0.115736-0.564212-0.028934-1.117814 0.084873-1.527712 0.163959l-0.686699 0.138883-0.350101 1.725427 0.63944-0.143705c0.382892-0.081979 0.901774-0.202538 1.426444-0.18132 0.264263-0.026041 0.518882 0.072335 0.761927 0.100305 0.235329 0.066548 0.441725 0.173604 0.625937 0.24208s0.3067 0.186142 0.407969 0.240152l0.152385 0.097411zM550.084777 633.220176l0.71949-1.554717-0.154314-0.064619a68.847339 68.847339 0 0 1-0.375177-0.217969c-0.294162-0.135025-0.770607-0.530456-1.181469-0.899846-0.421471-0.379999-0.800506-0.796648-1.093703-1.101418l-0.484161-0.509237-0.779287 1.578828 0.444618 0.483197c0.268121 0.28741 0.617257 0.680912 1.006901 1.033906 0.400253 0.354923 0.77543 0.655836 1.218119 0.892129l0.48609 0.278731 0.192893 0.081015zM556.827349 634.147991l0.056903-1.712889-2.17101-0.079086c-1.082129-0.040508-2.104462-0.165888-2.104461-0.165888l-0.227614 1.699386c0-0.000964 1.150606 0.139847 2.252025 0.179391l2.194157 0.079086zM563.06647 634.769106l0.476445-1.646341s-0.292233-0.088731-0.721419-0.179391a17.583154 17.583154 0 0 0-1.558575-0.244974c-1.123601-0.129238-2.227913-0.177461-2.227913-0.177461l-0.091624 1.71096s1.078271 0.048223 2.121822 0.168781c0.521775 0.060761 1.032942 0.140812 1.402331 0.219898 0.370354 0.079086 0.598932 0.149492 0.598933 0.148528z"
          fill="#2c2c2c" p-id="5652"></path>
    <path d="M490.946703 595.899255l1.481418-0.862231s-0.48609-0.835226-0.885379-1.732179c-0.411826-0.887307-0.722384-1.816087-0.722384-1.816087l-1.618371 0.566141s0.335634 1.00015 0.779287 1.957863c0.427258 0.962536 0.965429 1.886493 0.965429 1.886493zM495.552021 599.68092l1.47756-0.98086a5.325773 5.325773 0 0 0-0.464872-0.367461c-0.977003-0.68477-2.133396-1.069591-3.051566-1.870097l-1.277915 1.184363c0.845835 0.745531 1.951112 1.074414 2.876033 1.698422 0.154314 0.101269 0.298984 0.217005 0.44076 0.335633zM497.371001 605.054917l1.651164-0.584466s-0.086802-1.046444-0.274873-2.076492a11.77129 11.77129 0 0 0-0.339491-1.399438c-0.120558-0.374212-0.223756-0.615328-0.223756-0.615328l-1.552788 0.858373s0.095482 0.22472 0.204467 0.574821c0.10802 0.349136 0.218933 0.825582 0.300913 1.30685 0.162995 0.960607 0.234365 1.93568 0.234364 1.93568zM498.291101 610.947796l1.651163-0.461015s-0.302842-0.987612-0.493806-1.901924a17.504067 17.504067 0 0 1-0.189999-1.411976l-0.060762-0.653907-1.676239 0.438832 0.055939 0.607612c0.039543 0.373248 0.086802 0.827511 0.189999 1.350251l0.089696 0.411826 0.08873 0.36071c0.06269 0.237258 0.123451 0.459085 0.174568 0.64812l0.170711 0.611471zM497.34689 615.392048l0.984718 1.402332s0.229543-0.149492 0.569999-0.44269c0.169746-0.146599 0.367461-0.334669 0.558425-0.578678 0.244974-0.328882 0.3067-0.455227 0.481268-0.770607a4.171309 4.171309 0 0 0 0.442689-1.668524c0.025076-0.461979-0.010609-0.749389-0.010609-0.749389l-1.708067 0.140812c0-0.000964 0.105127 0.854516-0.251725 1.500707-0.218933 0.412791-0.379035 0.613399-0.638476 0.834261-0.2334 0.202538-0.428222 0.331776-0.428222 0.331776zM493.805376 620.734217l1.689742-0.289339c-0.060761-0.362639-0.122487-0.766749-0.126345-1.031977l-0.001929 0.059797c0.022183-0.580608 0.515989-1.101419 1.275022-1.598118l-0.95482-1.424514c-0.427258 0.290304-0.877663 0.619186-1.277915 1.095632-0.402182 0.464872-0.711775 1.135175-0.752283 1.804513l-0.002893 0.04533 0.000964 0.018324c0.012538 0.529491 0.084873 0.904668 0.150457 1.320352zM495.142124 626.691715l1.66563-0.407968-0.476445-1.966544-0.453299-1.964614-1.673346 0.36939 0.459085 1.991619 0.478375 1.978117z"
          fill="#2c2c2c" p-id="5653"></path>
</svg>
